G04 EAGLE Gerber RS-274X export*
G75*
%MOMM*%
%FSLAX34Y34*%
%LPD*%
%INTop Copper*%
%IPPOS*%
%AMOC8*
5,1,8,0,0,1.08239X$1,22.5*%
G01*
%ADD10P,3.409096X8X22.500000*%
%ADD11C,2.184400*%
%ADD12C,1.879600*%
%ADD13P,2.749271X8X202.500000*%
%ADD14C,1.676400*%
%ADD15C,1.676400*%
%ADD16C,2.000000*%
%ADD17C,1.778000*%
%ADD18C,0.750000*%


D10*
X62200Y-341700D03*
X62200Y-392500D03*
D11*
X316600Y-51400D03*
X281600Y-51400D03*
X390400Y-51400D03*
X355400Y-51400D03*
D12*
X676800Y-307700D03*
X702200Y-307700D03*
X727600Y-307700D03*
X676900Y-279700D03*
X702300Y-279700D03*
X727700Y-279700D03*
X677000Y-251700D03*
X702400Y-251700D03*
X727800Y-251700D03*
X676800Y-223300D03*
X702200Y-223300D03*
X727600Y-223300D03*
D13*
X896100Y-86100D03*
X819900Y-86100D03*
D14*
X613982Y-75100D02*
X597218Y-75100D01*
X597218Y-100500D02*
X613982Y-100500D01*
X613982Y-125900D02*
X597218Y-125900D01*
X597218Y-151300D02*
X613982Y-151300D01*
X613982Y-176700D02*
X597218Y-176700D01*
X597218Y-202100D02*
X613982Y-202100D01*
X613982Y-227500D02*
X597218Y-227500D01*
X597218Y-252900D02*
X613982Y-252900D01*
X613982Y-278300D02*
X597218Y-278300D01*
X597218Y-303700D02*
X613982Y-303700D01*
X613982Y-329100D02*
X597218Y-329100D01*
X597218Y-354500D02*
X613982Y-354500D01*
X461582Y-75100D02*
X444818Y-75100D01*
X444818Y-100500D02*
X461582Y-100500D01*
X461582Y-125900D02*
X444818Y-125900D01*
X444818Y-278300D02*
X461582Y-278300D01*
X461582Y-303700D02*
X444818Y-303700D01*
X444818Y-329100D02*
X461582Y-329100D01*
X461582Y-354500D02*
X444818Y-354500D01*
X444818Y-430700D02*
X461582Y-430700D01*
X597218Y-430700D02*
X613982Y-430700D01*
X613982Y-405300D02*
X597218Y-405300D01*
X597218Y-379900D02*
X613982Y-379900D01*
X461582Y-405300D02*
X444818Y-405300D01*
X444818Y-379900D02*
X461582Y-379900D01*
X461582Y-151300D02*
X444818Y-151300D01*
D15*
X504000Y-73830D03*
X529400Y-73830D03*
X554800Y-73830D03*
D14*
X461582Y-252900D02*
X444818Y-252900D01*
X444818Y-227500D02*
X461582Y-227500D01*
X461582Y-202100D02*
X444818Y-202100D01*
X444818Y-176700D02*
X461582Y-176700D01*
D15*
X504000Y-48430D03*
X529400Y-48430D03*
X554800Y-48430D03*
D16*
X204900Y-319400D03*
X204900Y-345400D03*
X204900Y-371400D03*
X204900Y-397400D03*
X204900Y-423400D03*
X204900Y-293400D03*
D17*
X928100Y-365010D02*
X928100Y-382790D01*
X801100Y-382790D02*
X801100Y-365010D01*
X826500Y-365010D02*
X826500Y-382790D01*
X851900Y-382790D02*
X851900Y-365010D01*
X877300Y-365010D02*
X877300Y-382790D01*
X902700Y-382790D02*
X902700Y-365010D01*
X205590Y-155300D02*
X187810Y-155300D01*
X187810Y-180700D02*
X205590Y-180700D01*
X205590Y-129900D02*
X187810Y-129900D01*
X187810Y-104500D02*
X205590Y-104500D01*
X205590Y-79100D02*
X187810Y-79100D01*
X187810Y-206100D02*
X205590Y-206100D01*
X205590Y-231500D02*
X187810Y-231500D01*
X187810Y-256900D02*
X205590Y-256900D01*
D18*
X204900Y-423400D02*
X376600Y-423400D01*
X394700Y-405300D02*
X453200Y-405300D01*
X394700Y-405300D02*
X376600Y-423400D01*
X299900Y-129900D02*
X196700Y-129900D01*
X299900Y-129900D02*
X400000Y-230000D01*
X450700Y-230000D01*
X453200Y-227500D01*
X727600Y-279800D02*
X727600Y-307700D01*
X727600Y-279800D02*
X727700Y-279700D01*
X727700Y-251800D01*
X727800Y-251700D01*
X727800Y-223500D01*
X727600Y-223300D01*
X316600Y-51400D02*
X316600Y-30000D01*
X390000Y-30000D01*
X390000Y-51000D01*
X390400Y-51400D01*
X390400Y-71400D02*
X410000Y-91000D01*
X390400Y-71400D02*
X390400Y-51400D01*
X410000Y-90000D02*
X410000Y-91000D01*
X410000Y-90000D02*
X420500Y-100500D01*
X453200Y-100500D01*
X758700Y-223500D02*
X896100Y-86100D01*
X758700Y-223500D02*
X727800Y-223500D01*
X316600Y-30000D02*
X240000Y-30000D01*
X240000Y-100000D01*
X201200Y-100000D01*
X196700Y-104500D01*
X50000Y-329500D02*
X62200Y-341700D01*
X50000Y-329500D02*
X50000Y-110000D01*
X60000Y-100000D01*
X201200Y-100000D01*
D16*
X330000Y-380000D03*
D18*
X312600Y-397400D02*
X204900Y-397400D01*
X312600Y-397400D02*
X330000Y-380000D01*
X727600Y-307700D02*
X801100Y-307700D01*
X801100Y-373900D01*
X896100Y-86100D02*
X896100Y-23910D01*
X586090Y-23910D02*
X580000Y-30000D01*
X580000Y-100000D01*
X579500Y-100500D01*
X453200Y-100500D01*
X710000Y-23910D02*
X896100Y-23910D01*
X710000Y-23910D02*
X586090Y-23910D01*
D16*
X710000Y-60000D03*
D18*
X710000Y-23910D01*
X851900Y-373900D02*
X851900Y-430000D01*
X604900Y-430000D01*
X600000Y-430000D01*
X604900Y-430000D02*
X605600Y-430700D01*
D16*
X877000Y-430000D03*
D18*
X877300Y-430000D01*
X877300Y-373900D01*
D16*
X693000Y-406000D03*
D18*
X692300Y-405300D02*
X605600Y-405300D01*
X692300Y-405300D02*
X693000Y-406000D01*
X204900Y-371400D02*
X203500Y-370000D01*
X170000Y-370000D01*
X170000Y-440000D01*
X180000Y-450000D01*
X450000Y-450000D01*
X450000Y-433900D01*
X453200Y-430700D01*
X898000Y-378600D02*
X902700Y-373900D01*
X902700Y-450000D01*
X450000Y-450000D01*
D16*
X928000Y-432000D03*
D18*
X928100Y-431900D02*
X928100Y-373900D01*
X928100Y-431900D02*
X928000Y-432000D01*
D16*
X693000Y-381000D03*
D18*
X691900Y-379900D02*
X605600Y-379900D01*
X691900Y-379900D02*
X693000Y-381000D01*
X676800Y-223300D02*
X646700Y-223300D01*
X617100Y-252900D02*
X605600Y-252900D01*
X617100Y-252900D02*
X646700Y-223300D01*
X648300Y-251700D02*
X677000Y-251700D01*
X621700Y-278300D02*
X605600Y-278300D01*
X621700Y-278300D02*
X648300Y-251700D01*
X676600Y-280000D02*
X676900Y-279700D01*
X676600Y-280000D02*
X650000Y-280000D01*
X626300Y-303700D01*
X605600Y-303700D01*
X647300Y-307700D02*
X676800Y-307700D01*
X625900Y-329100D02*
X605600Y-329100D01*
X625900Y-329100D02*
X647300Y-307700D01*
X324600Y-345400D02*
X204900Y-345400D01*
X324600Y-345400D02*
X395500Y-274500D01*
X420000Y-250000D01*
X450300Y-250000D01*
X453200Y-252900D01*
X201400Y-160000D02*
X196700Y-155300D01*
X201400Y-160000D02*
X280000Y-160000D01*
X394500Y-274500D01*
X395500Y-274500D01*
X702200Y-307700D02*
X702300Y-307600D01*
X702300Y-279700D01*
X702300Y-251800D01*
X702400Y-251700D01*
X702400Y-223500D01*
X702200Y-223300D01*
X196700Y-79100D02*
X196700Y-33300D01*
X216090Y-13910D01*
X450000Y-13910D02*
X453200Y-17110D01*
X453200Y-75100D01*
X450000Y-13910D02*
X216090Y-13910D01*
X196700Y-79100D02*
X120000Y-79100D01*
X40900Y-79100D01*
X23910Y-96090D01*
X23910Y-390000D01*
X26410Y-392500D01*
X62200Y-392500D01*
X702200Y-327800D02*
X702200Y-307700D01*
X720000Y-350000D02*
X770000Y-350000D01*
X720000Y-350000D02*
X702000Y-350000D01*
X770000Y-350000D02*
X770000Y-410000D01*
X826500Y-410000D01*
X826500Y-373900D01*
X702000Y-350000D02*
X702000Y-328000D01*
X702200Y-327800D01*
D16*
X720000Y-380000D03*
X120000Y-30000D03*
D18*
X120000Y-79100D01*
X720000Y-350000D02*
X720000Y-380000D01*
X776000Y-130000D02*
X819900Y-86100D01*
X776000Y-130000D02*
X682300Y-130000D01*
X635600Y-176700D01*
X605600Y-176700D01*
X355400Y-105400D02*
X355400Y-51400D01*
X426700Y-176700D02*
X453200Y-176700D01*
X426700Y-176700D02*
X355400Y-105400D01*
X280000Y-70000D02*
X280000Y-53000D01*
X281600Y-51400D01*
X280000Y-70000D02*
X412100Y-202100D01*
X453200Y-202100D01*
M02*
