M48
;GenerationSoftware,Autodesk,EAGLE,9.3.0*%
;CreationDate,2019-08-22T22:57:38Z*%
FMAT,2
ICI,OFF
METRIC,TZ,000.000
T5C0.800
T4C0.850
T3C1.000
T2C1.016
T1C1.118
%
G90
M71
T1
X6220Y-34170
X6220Y-39250
T2
X67700Y-25170
X81990Y-8610
X89610Y-8610
X72760Y-22330
X70220Y-22330
X67680Y-22330
X72780Y-25170
X70240Y-25170
X72760Y-30770
X67690Y-27970
X70230Y-27970
X72770Y-27970
X67680Y-30770
X70220Y-30770
T3
X31660Y-5140
X28160Y-5140
X39040Y-5140
X35540Y-5140
X90270Y-37390
X85190Y-37390
X92810Y-37390
X80110Y-37390
X82650Y-37390
X87730Y-37390
T4
X87700Y-43000
X71000Y-6000
X12000Y-3000
X20490Y-31940
X20490Y-34540
X20490Y-37140
X20490Y-39740
X20490Y-42340
X20490Y-29340
X72000Y-38000
X69300Y-38100
X92800Y-43200
X69300Y-40600
X33000Y-38000
T5
X45320Y-7510
X45320Y-10050
X45320Y-12590
X45320Y-27830
X45320Y-30370
X45320Y-32910
X45320Y-35450
X45320Y-43070
X60560Y-43070
X60560Y-40530
X60560Y-37990
X45320Y-40530
X45320Y-37990
X45320Y-15130
X50400Y-7383
X52940Y-7383
X55480Y-7383
X45320Y-25290
X45320Y-22750
X45320Y-20210
X45320Y-17670
X50400Y-4843
X52940Y-4843
X60560Y-7510
X60560Y-10050
X60560Y-12590
X60560Y-15130
X60560Y-17670
X60560Y-20210
X60560Y-22750
X60560Y-25290
X60560Y-27830
X60560Y-30370
X55480Y-4843
X60560Y-32910
X60560Y-35450
X19670Y-15530
X19670Y-18070
X19670Y-12990
X19670Y-10450
X19670Y-7910
X19670Y-20610
X19670Y-23150
X19670Y-25690
M30